<?xml version="1.0" standalone="no"?><!DOCTYPE svg PUBLIC "-//W3C//DTD SVG 1.1//EN" "http://www.w3.org/Graphics/SVG/1.1/DTD/svg11.dtd"><svg t="1746191751135" class="icon" viewBox="0 0 1024 1024" version="1.1" xmlns="http://www.w3.org/2000/svg" p-id="2475" xmlns:xlink="http://www.w3.org/1999/xlink" width="200" height="200"><path d="M515.715625 71.083965c-244.808612 0-443.97879 199.170179-443.97879 443.97879s199.170179 443.97879 443.97879 443.97879 443.97879-199.170179 443.97879-443.97879S760.524237 71.083965 515.715625 71.083965zM528.570397 918.832775l0-46.565549c0-11.04659-8.90788-19.999496-19.954471-19.999496s-19.954471 8.952906-19.954471 19.999496l0 45.873794c-203.341175-13.509688-366.016161-178.152493-376.400672-382.320499l39.755446 0c11.04659 0 19.999496-8.90788 19.999496-19.954471s-8.952906-19.954471-19.999496-19.954471l-39.827077 0C121.800044 291.0027 284.787138 125.528971 488.661456 111.983467l0 40.319288c0 11.04659 8.90788 19.999496 19.954471 19.999496s19.954471-8.952906 19.954471-19.999496L528.570397 111.291712c210.457246 6.612605 380.837728 174.975127 390.669654 384.619868l-47.258327 0c-11.04659 0-19.999496 8.90788-19.999496 19.954471s8.952906 19.954471 19.999496 19.954471l47.186695 0C908.544455 744.719272 738.490408 912.237567 528.570397 918.832775z" fill="#272636" p-id="2476"></path><path d="M707.559954 312.349891l-238.004649 160.219051c-0.864694 0.584308-1.673106 1.233084-2.426259 1.933025-0.046049 0.041956-0.093121 0.081864-0.138146 0.124843-0.137123 0.12996-0.267083 0.265036-0.400113 0.398066-0.13303 0.13303-0.26913 0.26299-0.398066 0.400113-0.042979 0.045025-0.082888 0.093121-0.124843 0.138146-0.699941 0.753153-1.349741 1.561565-1.933025 2.426259L303.907615 715.994044c-5.359055 7.960299-4.304026 18.608823 2.508123 25.365714 3.858888 3.835352 8.960069 5.804193 14.092973 5.804193 3.914146 0 7.858992-1.14815 11.288091-3.491521l236.449223-161.78164c0.1361-0.093121 0.265036-0.193405 0.398066-0.288572 0.118704-0.085958 0.23843-0.169869 0.355087-0.257873 0.168846-0.127913 0.333598-0.25992 0.497327-0.391926 0.12382-0.099261 0.24764-0.197498 0.36839-0.299829 0.152473-0.128937 0.299829-0.261966 0.448208-0.394996 0.12689-0.113587 0.254803-0.227174 0.378623-0.344854 0.135076-0.127913 0.267083-0.25992 0.398066-0.391926 0.12996-0.12996 0.25992-0.258896 0.38681-0.39295 0.118704-0.125867 0.233314-0.254803 0.348947-0.382717 0.132006-0.146333 0.264013-0.292666 0.390903-0.444115 0.103354-0.122797 0.202615-0.24764 0.302899-0.372483 0.130983-0.162706 0.26299-0.326435 0.388856-0.493234 0.089028-0.118704 0.174985-0.239454 0.260943-0.35918 0.095167-0.132006 0.194428-0.25992 0.286526-0.393973l161.78164-236.44206c5.414313-7.921413 4.445242-18.577101-2.312672-25.382087C726.160591 308.036655 715.52844 306.989813 707.559954 312.349891zM395.442354 651.66083l88.316441-131.188878 42.013883 42.013883L395.442354 651.66083z" fill="#272636" p-id="2477"></path></svg>