<svg version="1.1" xmlns="http://www.w3.org/2000/svg" viewBox="0 0 585.7796509920889 421.4121106392581" width="1171.5593019841779" height="842.8242212785162"><!-- svg-source:excalidraw --><metadata></metadata><defs><style class="style-fonts">
      </style></defs><rect x="0" y="0" width="585.7796509920889" height="421.4121106392581" fill="#ffffff"></rect><g stroke-linecap="round"><g transform="translate(159.00382397230638 121.41211063925812) rotate(0 -58.5 91)" fill-rule="evenodd"><path d="M-1.96 -1.12 L26.8 35.67 L-92.74 101.49 L30 139.2 L20.91 180.46 L-150.99 127.82 L-147.6 73.87 L0.04 0.33" stroke="none" stroke-width="0" fill="#000000" fill-rule="evenodd"></path><path d="M0 0 C7.56 11.95, 19.63 27.74, 25 34 M0 0 C8.27 11.45, 16.81 22.03, 25 34 M25 34 C-19.97 58.07, -60.35 84.12, -94 101 M25 34 C-5.91 52.16, -36.68 68.55, -94 101 M-94 101 C-64.74 108.13, -32.52 118.16, 32 141 M-94 101 C-64.46 110.23, -35.87 119.51, 32 141 M32 141 C25.71 155.64, 21.34 172, 19 182 M32 141 C28.45 154.47, 24.42 166.43, 19 182 M19 182 C-16.49 170.2, -52.33 158.91, -149 127 M19 182 C-33.98 163.27, -87.01 147.14, -149 127 M-149 127 C-149.06 107.87, -148.39 89.24, -149 74 M-149 127 C-148.6 114.25, -148.56 101.77, -149 74 M-149 74 C-114.07 55.49, -75.55 37.53, 0 0 M-149 74 C-94.08 46.78, -39.86 20.69, 0 0 M0 0 C0 0, 0 0, 0 0 M0 0 C0 0, 0 0, 0 0" stroke="#000000" stroke-width="1" fill="none"></path></g></g><mask></mask><g stroke-linecap="round"><g transform="translate(418.34699711426435 121.41211063925812) rotate(0 61.75724388510592 91)" fill-rule="evenodd"><path d="M1.8 1.67 L-25.13 34.49 L97.23 99.2 L-31.88 139.46 L-22.04 182.82 L158.69 126.87 L157.33 74.33 L1.7 0.23" stroke="none" stroke-width="0" fill="#000000" fill-rule="evenodd"></path><path d="M0 0 C-9.04 13.36, -18.35 22.09, -26.39 34 M0 0 C-5.12 7.69, -11.4 16.06, -26.39 34 M-26.39 34 C7.06 52.66, 36.75 68.81, 99.23 101 M-26.39 34 C8.55 51.03, 42.11 69.12, 99.23 101 M99.23 101 C46.91 114, -5.66 130.5, -33.78 141 M99.23 101 C52.03 116.92, 5.4 129.6, -33.78 141 M-33.78 141 C-29.11 157.17, -22.85 172.44, -20.06 182 M-33.78 141 C-27.61 155.34, -24.24 170.96, -20.06 182 M-20.06 182 C47.89 162.04, 112.51 142.07, 157.3 127 M-20.06 182 C26.55 169.33, 73.78 154.52, 157.3 127 M157.3 127 C157.96 110.48, 155.92 94.78, 157.3 74 M157.3 127 C157.28 106.54, 156.82 87.47, 157.3 74 M157.3 74 C102.77 49.09, 48.93 23.69, 0 0 M157.3 74 C113.76 54.43, 72.04 32.35, 0 0 M0 0 C0 0, 0 0, 0 0 M0 0 C0 0, 0 0, 0 0" stroke="#000000" stroke-width="1" fill="none"></path></g></g><mask></mask><g stroke-linecap="round"><g transform="translate(202.00382397230638 410.4121106392581) rotate(0 84 -199.5)" fill-rule="evenodd"><path d="M-0.95 0.66 L110.62 -401.38 L166.04 -398.57 L58.76 -0.04 L-0.16 -1.54" stroke="none" stroke-width="0" fill="#228be6" fill-rule="evenodd"></path><path d="M0 0 C27.26 -99.88, 53.83 -197.04, 112 -400 M0 0 C34.67 -128.74, 70.21 -258.32, 112 -400 M112 -400 C128.07 -399.95, 145.18 -400.3, 168 -400 M112 -400 C133.51 -400.4, 156.97 -400.68, 168 -400 M168 -400 C142.91 -312.71, 120.35 -223.95, 59 1 M168 -400 C128.11 -251.8, 87.91 -103.42, 59 1 M59 1 C44.41 -0.19, 30.47 1.98, 0 0 M59 1 C38.12 0.29, 19.61 0.53, 0 0 M0 0 C0 0, 0 0, 0 0 M0 0 C0 0, 0 0, 0 0" stroke="#000000" stroke-width="1" fill="none"></path></g></g><mask></mask></svg>