<svg xmlns="http://www.w3.org/2000/svg" id="Layer_2" version="1.1" viewBox="0 0 1030.1 272.8"><defs><style>.st0{fill:#74b266;stroke:#416837}.st0,.st4,.st5,.st6{stroke-linejoin:round;stroke-width:1.5px}.st0,.st5,.st6{stroke-linecap:round}.st9{fill:#fff}.st4,.st5,.st6{fill:none;stroke:#191919}.st10{fill:#191919}.st6{stroke-dasharray:.9 5.7}</style></defs><path d="M0 0h1030.1v272.8H0z" class="st9"/><path d="m207.4 16.5 3.6 10 9.6-4.6-4.6 9.6 10 3.6-10 3.5 4.6 9.6-9.6-4.5-3.6 10-3.5-10-9.6 4.5 4.5-9.6-10-3.5 10-3.6-4.5-9.6 9.6 4.6z" style="stroke-linejoin:round;stroke-width:1.5px;stroke-linecap:round;stroke:#231f20;fill:#c9c9c9"/><path d="M16.7 96.8h233.7v26.1H16.7z" style="stroke-linejoin:round;stroke-width:1.5px;stroke-linecap:round;fill:#c9c9c9;stroke:#727272"/><path d="M264.5 96.8h107.3v26.1H264.5zm114.9 0h187.5v26.1H379.4zm195.9 0h76.6v26.1h-76.6z" style="stroke-linejoin:round;stroke-width:1.5px;stroke-linecap:round;fill:#efc458;stroke:#9b7c37"/><path d="M711.3 96.8h76.6v26.1h-76.6z" class="st0"/><path d="M659.6 96.8H704v26.1h-44.4z" style="stroke-linejoin:round;stroke-width:1.5px;stroke-linecap:round;fill:#9b7fe6;stroke:#5d4e93"/><path d="M797.7 193.5H875v26.1h-77.3z" class="st0"/><path d="M207.3 126.8s-.9 9.3 8.4 9.3h11.8c9.3 0 8.4 9.3 8.4 9.3s-.9-9.3 8.4-9.3h11.8c9.3 0 8.4-9.3 8.4-9.3m3.4 0s-.9 9.3 8.4 9.3h175.2c9.3 0 8.4 9.3 8.4 9.3s-.9-9.3 8.4-9.3h175.2c9.3 0 8.4-9.3 8.4-9.3m7.8 0s-.9 9.3 8.4 9.3H759c9.3 0 8.4 9.3 8.4 9.3s-.9-9.3 8.4-9.3h90.9c9.3 0 8.4-9.3 8.4-9.3M659.7 93.4s-.9-9.3 8.4-9.3h5.4c9.3 0 8.4-9.3 8.4-9.3s-.9 9.3 8.4 9.3h5.4c9.3 0 8.4 9.3 8.4 9.3m7.2 0s-.9-9.3 8.4-9.3h21.5c9.3 0 8.4-9.3 8.4-9.3s-.9 9.3 8.4 9.3h21.5c9.3 0 8.4 9.3 8.4 9.3" class="st5"/><path d="M286.8 106.9h1v.7l.3-.3c.1 0 .2-.2.3-.2.2 0 .4-.2.5-.2h.6c.4 0 .7 0 1.1.2.3.2.6.4.8.7s.4.6.5 1 .2.9.2 1.3c0 .5 0 1-.2 1.4 0 .4-.3.7-.5 1s-.5.5-.8.7-.7.2-1.1.2h-.7c-.2 0-.4-.1-.6-.2l-.3-.2-.2-.2v3h-1.1v-8.7Zm4.2 2.3c0-.3-.2-.5-.3-.7s-.3-.4-.5-.5-.5-.2-.8-.2h-.5c-.1 0-.3 0-.4.2-.1 0-.2.2-.3.3s-.2.2-.3.4v3.1c0 .1.1.2.2.3 0 .1.2.2.3.3.1 0 .3.1.4.2h.5c.3 0 .5 0 .8-.2.2-.1.4-.3.5-.5s.3-.5.3-.7c0-.3.1-.6.1-.9v-1Zm2.9-.4c.1-.4.3-.7.6-1 .2-.3.6-.5.9-.7q1.2-.45 2.4 0c.4.2.7.4.9.7s.4.6.6 1c.1.4.2.8.2 1.3 0 .6 0 1-.2 1.4-.1.4-.3.7-.6 1-.5.6-1.3.9-2.1.9-.4 0-.8 0-1.2-.2-.3-.2-.7-.4-.9-.7-.3-.3-.4-.6-.6-1-.1-.4-.2-.8-.2-1.3 0-.6 0-1 .2-1.4m1 2.3c0 .3.2.5.3.8.1.2.3.4.6.5.5.3 1.1.3 1.6 0 .2-.1.4-.3.6-.5s.3-.5.3-.8.1-.6.1-.9c0-.4 0-.7-.1-1 0-.3-.2-.5-.3-.8-.1-.2-.3-.4-.6-.5-.5-.3-1.1-.3-1.6 0-.2.1-.4.3-.6.5s-.3.5-.3.8-.1.6-.1.9v1Zm9.7-4.2v5.4h2.1v.9h-5.3v-.9h2.2v-4.5h-2.2v-1h3.2Zm-1.2-1.9s0-.2.1-.2c0 0 .1-.1.2-.1h.5s.1 0 .2.1c0 0 .1.1.1.2v.3c0 .2 0 .3-.2.4-.1.1-.3.2-.5.2s-.4 0-.5-.2c-.1-.1-.2-.3-.2-.4v-.3Zm5 1.9h1v.9c.2-.1.3-.2.4-.4.1-.1.2-.2.4-.3l.6-.3c.2 0 .5-.1.7-.1.3 0 .6 0 .9.1.3 0 .5.2.7.4s.4.5.4.8c.1.4.2.7.2 1.1v4h-1.1v-4.7c0-.2-.2-.3-.3-.5-.1-.1-.3-.2-.5-.3h-1.2c-.2 0-.3.1-.5.2-.1 0-.2.2-.3.3s-.2.2-.3.4v4.5h-1.1v-6.3Zm9.8 0h2.4v.8h-2.4v3.4c0 .2 0 .4.1.6 0 .3.3.5.6.6h1.6l.2-.1.2.8c-.1 0-.2.1-.3.1s-.3 0-.4.1h-1c-.3 0-.5 0-.8-.1-.2 0-.5-.2-.6-.4-.2-.2-.3-.4-.4-.7s-.2-.7-.2-1v-3.4h-1.7v-.8h1.7v-1.5h1.1v1.5Zm6.2 6.3c-.4-.1-.7-.4-1-.6-.3-.3-.5-.6-.6-1-.2-.4-.2-.8-.2-1.2v-.2c0-.5 0-.9.2-1.4.2-.4.4-.7.7-1q.45-.45.9-.6c.3-.1.7-.2 1.1-.2s.8 0 1.2.2c.3.2.6.4.9.7.2.3.4.6.5 1s.2.8.2 1.2v.5h-4.5c0 .3 0 .6.2.8 0 .2.2.4.4.6s.4.3.6.4c.3.1.5.2.8.2.7 0 1.4-.3 1.8-.9l.7.5c-.3.4-.6.6-1 .8-.5.3-1 .4-1.5.4-.4 0-.8 0-1.1-.2Zm.4-5.4c-.2 0-.4.2-.5.3-.2.2-.3.4-.4.6s-.2.5-.2.8h3.4c0-.2 0-.4-.1-.6 0-.2-.2-.4-.3-.6s-.3-.3-.5-.4c-.4-.2-.9-.2-1.3 0Zm10-.9c.2 0 .3 0 .5.1v1.1h-2.1c-.2 0-.4.2-.6.3-.1.1-.3.2-.4.4s-.2.3-.3.5v4.1h-1.1v-6.3h1v1c.2-.3.6-.6.9-.8q.6-.3 1.2-.3h.7Zm6.5 5.5c-.2.3-.5.6-.8.7-.3.2-.7.3-1.1.3-.3 0-.6 0-.9-.2-.3-.1-.5-.3-.7-.5s-.4-.5-.4-.8c-.1-.4-.2-.8-.2-1.2v-3.8h1.1v4.7c0 .2.1.4.2.5s.2.2.4.3h1.1c.2 0 .3-.1.5-.2.1 0 .2-.2.3-.3 0-.1.2-.2.2-.4v-4.6h1.1v6.3h-1v-.9Zm3.1-5.5h1v.7l.3-.3c.1 0 .2-.2.3-.2.2 0 .4-.2.5-.2h.6c.7 0 1.4.3 1.9.9.2.3.4.6.5 1s.2.9.2 1.3c0 .5 0 1-.2 1.4 0 .4-.3.7-.5 1s-.5.5-.8.7-.7.2-1.1.2h-.7c-.2 0-.4-.1-.6-.2l-.3-.2-.2-.2v3h-1.1v-8.7Zm4.2 2.3c0-.3-.2-.5-.3-.7s-.3-.4-.5-.5-.5-.2-.8-.2h-.5c-.1 0-.3 0-.4.2-.1 0-.2.2-.3.3s-.2.2-.3.4v3.1c0 .1.1.2.2.3 0 .1.2.2.3.3.1 0 .3.2.4.2h.5c.3 0 .5 0 .8-.2.2-.1.4-.3.5-.5s.2-.5.3-.7c0-.3.1-.6.1-.9 0-.4 0-.7-.1-1Zm100.9-1.7c.3-.5.7-.7 1.3-.7h.5c.1 0 .2 0 .4.2l.2.2s.1.2.1.3c0 0 .1-.2.2-.3 0 0 .2-.1.2-.2.1 0 .2-.1.4-.2h1.1c.2 0 .3.2.4.3.1.2.3.3.3.6s.1.5.1.8v4.7h-1v-5s0-.2-.1-.3c0 0-.1-.1-.2-.1h-.6s-.2 0-.2.1c0 0-.1.1-.1.2v5.2h-1v-5.1s0-.2-.1-.2c0 0-.1-.1-.2-.1h-.6s-.2 0-.2.1l-.1.1v5.2h-1V107h1v.7Zm6.5 1.3c.1-.4.3-.7.6-1 .2-.3.6-.5.9-.7.4-.2.8-.3 1.2-.2.4 0 .8 0 1.2.2s.7.4.9.7.4.6.6 1c.1.4.2.8.2 1.3 0 .6 0 1-.2 1.4-.1.4-.3.7-.6 1-.2.3-.6.5-.9.7-.4.2-.8.3-1.2.2-.4 0-.8 0-1.2-.2s-.7-.4-.9-.7c-.3-.3-.4-.6-.6-1-.1-.4-.2-.8-.2-1.3 0-.6 0-1 .2-1.4m1 2.3c0 .3.2.5.3.7s.3.4.6.5c.2.1.5.2.8.2s.5 0 .8-.2c.2-.1.4-.3.6-.5s.3-.5.3-.7c0-.3.1-.6.1-.9 0-.4 0-.7-.1-1 0-.3-.2-.5-.3-.8-.1-.2-.3-.4-.6-.5-.7-.4-1.7-.2-2.1.5-.2.2-.3.5-.3.8s-.1.6-.1.9c0 .4 0 .7.1 1Zm10.4 1.3c-.2.3-.5.6-.8.7-.3.2-.7.3-1.1.3-.3 0-.6 0-.9-.2-.3-.1-.5-.3-.7-.5s-.4-.5-.4-.8c-.1-.4-.2-.8-.2-1.2v-3.8h1.1v4.7c0 .2.1.4.2.5s.2.2.4.3h1.1c.2 0 .4-.1.5-.2.1 0 .2-.2.3-.3 0-.1.2-.2.2-.4v-4.6h1.1v6.3h-1v-.9Zm7.3-1.1c0-.1-.1-.2-.2-.3s-.3-.2-.5-.2-.5-.1-.8-.2c-.3 0-.7-.2-1-.3-.3 0-.5-.2-.8-.4-.2-.1-.4-.3-.5-.5s-.2-.4-.2-.7 0-.5.2-.7c.1-.2.3-.4.5-.6s.5-.3.8-.4c.3 0 .7-.1 1-.1.4 0 .7 0 1.1.2.3 0 .6.2.8.4s.4.4.5.6.2.5.2.8h-1.1c0-.1 0-.3-.1-.4 0-.1-.2-.3-.3-.3-.1-.1-.3-.2-.5-.2h-1.2c-.2 0-.3.1-.4.2-.1 0-.2.2-.3.3v.6c0 .1.1.2.2.3.1 0 .3.2.5.2s.5.1.7.2c.3 0 .7.2 1 .3.3 0 .5.2.8.4.2.1.4.3.5.5s.2.5.2.7c0 .3 0 .5-.2.8-.1.2-.3.4-.5.6s-.5.3-.8.4c-.3 0-.7.1-1 .1-.4 0-.8 0-1.1-.2-.3-.1-.6-.3-.9-.5-.2-.2-.4-.4-.5-.7-.1-.2-.2-.5-.2-.8h1.1c0 .2 0 .4.2.6 0 .2.2.3.4.4.2 0 .3.2.5.2h1.3c.2 0 .4-.1.5-.3 0 0 .1-.2.2-.2v-.6Zm4.6 1.9c-.4-.1-.7-.4-1-.6-.3-.3-.5-.6-.6-1s-.2-.8-.2-1.2v-.2c0-.5 0-.9.2-1.4.1-.4.4-.7.6-1q.45-.45.9-.6c.3-.1.7-.2 1.1-.2s.8 0 1.2.2c.3.2.6.4.9.7.2.3.4.6.5 1s.2.8.2 1.2v.5h-4.5c0 .3 0 .6.2.8 0 .2.2.4.4.6.4.4.9.6 1.4.6.7 0 1.4-.3 1.8-.9l.7.5c-.2.4-.6.6-.9.8-.5.3-1 .4-1.6.4-.4 0-.8 0-1.2-.2Zm.5-5.4c-.2 0-.4.2-.5.3-.2.2-.3.4-.4.6s-.2.5-.2.8h3.4c0-.2 0-.4-.1-.6 0-.2-.2-.4-.3-.6s-.3-.3-.5-.4c-.4-.2-.9-.2-1.3 0Zm9.2 4.6c-.2.3-.5.6-.8.7-.3.2-.7.3-1.1.3-.3 0-.6 0-.9-.2-.3-.1-.5-.3-.7-.5s-.4-.5-.4-.8c-.1-.4-.2-.8-.1-1.2v-3.8h1.1v4.7c0 .2.1.4.2.5s.2.2.4.3h1.1c.2 0 .4-.1.5-.2.1 0 .2-.2.3-.3 0-.1.2-.2.2-.4v-4.6h1.1v6.3h-1v-.9Zm3.1-5.5h1v.7l.3-.3c.1 0 .2-.2.3-.2.2 0 .4-.2.5-.2h.6c.4 0 .7 0 1.1.2.3.2.6.4.8.7s.4.6.5 1 .2.9.2 1.3c0 .5 0 1-.2 1.4 0 .4-.3.7-.5 1-.4.6-1.1.9-1.9.9-.4 0-.9 0-1.2-.3l-.3-.2-.2-.2v3H492V107Zm4.2 2.3c0-.3-.2-.5-.3-.7s-.3-.4-.5-.5-.5-.2-.8-.2h-.5c-.1 0-.3 0-.4.2-.1 0-.2.2-.3.3s-.2.2-.3.4v3.1c0 .1.1.2.2.3 0 .1.2.2.3.3q.45.3.9.3c.3 0 .5 0 .8-.2.2-.1.4-.3.5-.5s.3-.5.3-.7c0-.3.1-.6.1-.9 0-.4 0-.7-.1-.9Zm103.6 3.2c.2 0 .4-.1.5-.3.1-.1.3-.2.3-.4 0-.1.1-.3.1-.5h1c0 .3 0 .6-.2.8-.1.3-.3.5-.6.7q-.75.6-1.8.6c-.4 0-.9 0-1.3-.3-.3-.2-.6-.4-.9-.7-.2-.3-.4-.6-.5-1s-.2-.8-.2-1.2v-.2c0-.4 0-.8.2-1.2.1-.4.3-.7.5-1s.5-.5.9-.7c.7-.3 1.6-.3 2.3 0 .3.1.6.3.8.5s.4.5.5.7c.1.3.2.6.2.9h-1c0-.2 0-.4-.1-.5 0-.2-.2-.3-.3-.4s-.3-.2-.5-.3c-.5-.2-1-.1-1.5 0-.2.1-.4.3-.6.5-.1.2-.2.5-.3.7v1.8c0 .3.2.5.3.7s.3.4.5.5c.3.1.6.2.8.2s.4 0 .6-.1Zm7.3-8.1v8.1h2.1v.9H604v-.9h2.2v-7.1H604v-1zm7.2 2.6v5.4h2.1v.9h-5.3v-.9h2.2v-4.5h-2.2v-1h3.2Zm-1.2-1.9s0-.2.1-.2c0 0 .1 0 .2-.1h.5s.1 0 .2.1c0 0 .1.1.1.2v.3c0 .2 0 .3-.2.4-.3.2-.7.2-1 0-.1-.1-.2-.3-.2-.4v-.3Zm8.3 7.4c.2 0 .3-.1.5-.3.1-.1.3-.2.3-.4 0-.1.1-.3.1-.5h1c0 .3 0 .6-.2.8-.1.3-.3.5-.6.7-.2.2-.5.4-.8.5s-.7.2-1 .2c-.4 0-.9 0-1.3-.3-.3-.2-.7-.4-.9-.7s-.4-.6-.5-1-.2-.8-.2-1.2v-.2c0-.4 0-.8.2-1.2.1-.4.3-.7.5-1s.6-.5.9-.7c.4-.2.8-.3 1.3-.2.3 0 .7 0 1 .2.3.1.6.3.8.5s.4.5.5.7c.1.3.2.6.2.9h-1c0-.2 0-.4-.1-.5 0-.2-.2-.3-.3-.4s-.3-.2-.5-.3c-.2 0-.4-.1-.6-.1-.3 0-.6 0-.8.2-.2.1-.4.3-.5.5s-.2.5-.3.7v1.8c0 .3.2.5.3.7s.3.4.5.5c.3.1.6.2.9.2.2 0 .4 0 .6-.1m5-1.3v2.2h-1.1v-9h1.1v5.5l.7-.8 2.1-2.1h1.3l-2.6 2.6 3 3.7h-1.4l-2.3-3-.8.8Z"/><path d="M663.4 62.8h2.9c.5 0 .9.1 1.3.3s.8.5 1 .9c.5.7.5 1.7 0 2.4-.2.3-.4.6-.7.9-.3.2-.6.4-1 .5l2.4 3.5h-1.2l-2.3-3.5h-1.3v3.5h-1v-8.5Zm2.8 4.2c.3 0 .6 0 .8-.2q.45-.15.6-.6c.2-.2.2-.5.2-.8s0-.5-.2-.8q-.15-.3-.6-.6c-.3-.2-.5-.2-.8-.2h-1.9V67h1.8Zm5 4.2c-.5-.3-.8-.7-1.1-1.2s-.4-1.1-.4-1.7.1-1.1.4-1.6c.2-.5.6-.9 1-1.2.5-.3 1-.4 1.5-.4s1.1.1 1.6.4c.4.3.8.7 1 1.1.2.5.4 1.1.4 1.6v.3h-4.8q0 .6.3 1.2c.2.3.4.6.8.7.3.2.7.2 1 .2.8 0 1.5-.4 1.8-1.1l.9.4c-.3.5-.6.9-1.1 1.2-1 .6-2.2.6-3.2 0Zm3.4-3.5c0-.3 0-.5-.2-.8-.1-.3-.3-.5-.6-.7s-.6-.3-1-.3c-.5 0-.9.2-1.2.5s-.6.7-.7 1.2h3.7Zm2.2-2.4h1v.9c.2-.3.5-.6.8-.8a2.7 2.7 0 0 1 2.9.3q.6.75.6 1.8v3.9h-1v-3.8c0-.4-.1-.9-.4-1.2s-.7-.4-1.1-.4c-.3 0-.6 0-.9.3-.3.2-.5.4-.6.7s-.2.7-.2 1v3.4h-1v-6.2Zm7.9 5.9c-.4-.3-.8-.7-1-1.2-.3-.5-.4-1.1-.4-1.7s.1-1.2.4-1.7c.2-.5.6-.9 1-1.2s1-.4 1.5-.4c.4 0 .9.1 1.2.3s.6.5.8.8v-3.4h1v8.6h-1v-.9c-.2.3-.5.6-.8.8q-.6.3-1.2.3c-.5 0-1-.1-1.5-.4Zm2.6-.8c.3-.2.6-.5.7-.8q.3-.6.3-1.2c0-.4 0-.8-.3-1.2-.2-.3-.4-.6-.7-.8s-.6-.3-1-.3-.7.1-1 .3-.6.5-.8.8q-.3.6-.3 1.2c0 .4 0 .8.3 1.2.2.3.4.6.8.8.3.2.6.3 1 .3s.7-.1 1-.3m4.6.8c-.5-.3-.8-.7-1.1-1.2s-.4-1.1-.4-1.7.1-1.1.4-1.6c.2-.5.6-.9 1-1.2.5-.3 1-.4 1.5-.4s1.1.1 1.6.4c.4.3.8.7 1 1.1.2.5.4 1.1.4 1.6v.3h-4.8q0 .6.3 1.2c.2.3.4.6.8.7.3.2.7.2 1 .2.8 0 1.5-.4 1.8-1.1l.9.4c-.3.5-.6.9-1.1 1.2-1 .6-2.2.6-3.2 0Zm3.3-3.5c0-.2-.1-.5-.2-.7-.1-.3-.3-.5-.6-.7s-.6-.3-1-.3c-.5 0-.9.2-1.2.5s-.6.7-.7 1.2zm2.3-2.4h1v1c.1-.3.4-.6.7-.8s.7-.3 1.1-.3c.2 0 .5 0 .7.1v1.1c-.3-.1-.6-.2-.9-.2s-.6 0-.8.2-.5.4-.6.7-.2.6-.2.9v3.4h-1zm39.8-2.5h2.9c.5 0 .9.1 1.3.3s.8.5 1 .9c.5.8.5 1.8 0 2.6-.2.4-.6.7-1 .9s-.9.3-1.3.3h-1.9v3.5h-1v-8.6Zm2.9 4.2c.3 0 .6 0 .8-.2q.3-.15.6-.6.45-.75 0-1.5-.15-.3-.6-.6c-.3-.2-.6-.2-.8-.2h-1.9V67zm4.3 4.3c-.3-.2-.6-.4-.8-.7s-.3-.7-.3-1.1c0-.6.2-1.2.7-1.5.5-.4 1.2-.6 1.8-.5.3 0 .7 0 1 .1.3 0 .5.1.7.3v-.4c0-.4-.2-.8-.5-1.1s-.8-.4-1.2-.4c-.3 0-.7 0-1 .2-.3.1-.5.4-.7.6l-.8-.6c.2-.4.6-.7 1-.9s.9-.3 1.4-.3c.7 0 1.4.2 2 .7.5.5.7 1.1.7 1.8v3.9h-1v-.9c-.4.7-1.2 1.1-2 1.1-.4 0-.9 0-1.2-.3Zm2.3-.9c.3-.2.5-.4.7-.7s.3-.6.3-1c-.2-.1-.5-.2-.7-.3-.3 0-.6-.1-.9-.1-.4 0-.9 0-1.3.3-.3.2-.4.5-.4.9 0 .3.1.6.4.8s.6.3 1 .3c.3 0 .6 0 .9-.2m3.4-6.4c-.1-.1-.2-.3-.2-.5s0-.4.2-.5c.3-.3.7-.3 1 0 .1.1.2.3.2.5s0 .4-.2.5c-.3.3-.7.3-1 0m0 1.3h1v6.1h-1zm2.6 0h1v.9c.2-.3.5-.6.8-.8a2.7 2.7 0 0 1 2.9.3q.6.75.6 1.8v3.9h-1v-3.8c0-.4-.1-.9-.4-1.2s-.7-.4-1.1-.4c-.3 0-.6 0-.9.3-.3.2-.5.4-.6.7s-.2.7-.2 1v3.4h-1v-6.2Zm8.1 6.2c-.2 0-.4-.2-.5-.3-.3-.3-.5-.8-.5-1.3v-3.6h-1.1v-.9h1.1v-1.7h1v1.7h1.5v.9H761v3.4c0 .3 0 .5.2.8.2.2.4.3.7.3.2 0 .5 0 .7-.2v1c-.1 0-.2 0-.4.1H761Z" class="st10"/><path d="M16.7 93.4s-.9-9.3 8.4-9.3h100c9.3 0 8.4-9.3 8.4-9.3s-.9 9.3 8.4 9.3H242c9.3 0 8.4 9.3 8.4 9.3" class="st5"/><path d="M96.1 62.8h3.1q.6 0 1.2.3c.4.2.7.5.9.8q.3.6.3 1.2c0 .4-.1.8-.3 1.1s-.5.6-.9.7c.4.2.8.4 1.1.8s.4.8.4 1.3a2.2 2.2 0 0 1-1.3 2.1c-.4.2-.8.3-1.3.3h-3.2zm3.1 3.7c.3 0 .5 0 .8-.2.2-.1.4-.3.5-.5s.2-.4.2-.7c0-.2 0-.4-.2-.6-.1-.2-.3-.4-.5-.5s-.5-.2-.7-.2h-2.1v2.7h2.1Zm.2 4c.3 0 .5 0 .8-.2.2-.1.4-.3.5-.6.1-.2.2-.5.2-.7s0-.5-.2-.7c-.1-.2-.3-.4-.5-.6-.2-.1-.5-.2-.8-.2h-2.2v2.9h2.3Zm3.8-7.7h1v8.6h-1zm3.7 8.4c-.5-.3-.9-.7-1.1-1.2-.3-.5-.4-1.1-.4-1.7s.1-1.1.4-1.6.6-.9 1.1-1.2c1-.6 2.2-.6 3.2 0 .5.3.9.7 1.1 1.2.3.5.4 1.1.4 1.6 0 .6-.1 1.1-.4 1.7-.3.5-.6.9-1.1 1.2-1 .6-2.2.6-3.2 0m2.6-.8c.3-.2.6-.5.8-.8q.3-.6.3-1.2c0-.4 0-.9-.3-1.2-.2-.3-.4-.6-.8-.8-.3-.2-.6-.3-1-.3s-.7.1-1 .3-.6.5-.8.8q-.3.6-.3 1.2c0 .4 0 .9.3 1.2.2.3.5.6.8.8s.6.3 1 .3.7-.1 1-.3m4.5.8c-.5-.3-.8-.7-1.1-1.2s-.4-1.1-.4-1.7.1-1.2.4-1.7.6-.9 1.1-1.2 1-.4 1.6-.4 1.2.1 1.7.5c.5.3.8.7 1 1.2l-.9.4c-.1-.4-.4-.7-.7-.9a2 2 0 0 0-2.1 0c-.3.2-.6.5-.8.8q-.3.6-.3 1.2c0 .4 0 .8.3 1.2.2.3.4.6.8.8.3.2.6.3 1 .3s.8 0 1.1-.3c.3-.2.6-.5.7-.8l.9.4c-.2.5-.6.9-1 1.2-.5.3-1.1.5-1.7.5s-1.1-.1-1.6-.4Zm5.4-8.4h1v5.4l2.9-2.9h1.3l-2.4 2.4 2.5 3.6h-1.2l-2-2.9-1 1.1v1.9h-1v-8.5Zm6.1 1.2c-.1-.1-.2-.3-.2-.5s0-.4.2-.5c.3-.3.7-.3 1 0 .1.1.2.3.2.5s0 .4-.2.5c-.3.3-.7.3-1 0m0 1.3h1v6.1h-1zm2.7 0h1v.9c.2-.3.5-.6.8-.8a2.7 2.7 0 0 1 2.9.3q.6.75.6 1.8v3.9h-1v-3.8c0-.4-.1-.9-.4-1.2s-.7-.4-1.1-.4c-.3 0-.6 0-.9.3-.3.2-.5.4-.6.7s-.2.7-.2 1v3.4h-1v-6.2Zm7.5 8.4c-.5-.3-.8-.7-1-1.2l.9-.4c.1.4.4.7.7.9s.7.3 1.1.3c.5 0 1.1-.2 1.5-.5.4-.4.6-1 .5-1.5v-.7c-.2.3-.5.6-.8.8q-.6.3-1.2.3c-.5 0-1-.1-1.4-.4s-.8-.7-1-1.2c-.5-1.1-.5-2.3 0-3.4.2-.5.6-.9 1-1.2.8-.5 1.8-.5 2.7-.1.3.2.6.5.8.8v-.9h1v5.9c0 .8-.2 1.7-.8 2.2-1.1.9-2.7 1-3.9.3Zm2.8-3.3c.3-.2.6-.5.7-.8q.3-.6.3-1.2c0-.4 0-.9-.3-1.2-.2-.3-.4-.6-.7-.8s-.6-.3-1-.3-.7 0-1 .3c-.3.2-.6.5-.7.8q-.3.6-.3 1.2c0 .4 0 .9.3 1.2.2.3.4.6.7.8.6.4 1.4.4 2 0m7.9 1.1c-.2 0-.4-.2-.5-.3-.3-.3-.5-.8-.5-1.3v-3.6h-1.1v-.9h1.1v-1.7h1v1.7h1.6v.9h-1.5v3.4c0 .3 0 .5.2.8.2.2.4.3.7.3.2 0 .5 0 .7-.2v1c-.1 0-.2 0-.4.1h-1.2Zm3.4-.2c-.3-.2-.6-.4-.8-.7s-.3-.7-.3-1.1c0-.6.3-1.2.7-1.5.5-.4 1.2-.6 1.9-.5.3 0 .7 0 1 .1.3 0 .5.1.7.3v-.4c0-.4-.2-.8-.5-1.1s-.8-.4-1.2-.4c-.3 0-.6 0-.9.2-.3.1-.5.4-.7.6l-.8-.6c.2-.4.6-.7 1-.9s.9-.3 1.4-.3c.7 0 1.4.2 2 .7.5.5.7 1.1.7 1.8v3.9h-1v-.9c-.2.3-.5.6-.8.8q-.6.3-1.2.3c-.4 0-.8 0-1.2-.3m2.3-.9c.3-.2.5-.4.7-.7s.3-.6.3-1c-.2-.1-.5-.2-.7-.3-.3 0-.6-.1-.9-.1-.5 0-.9 0-1.3.3-.3.2-.4.5-.4.9 0 .3.1.6.4.8s.6.3 1 .3c.3 0 .6 0 .9-.2m3.8.8q-.6-.45-.9-1.2l.9-.4c.1.3.4.6.7.8s.6.3 1 .3c.3 0 .7 0 1-.2.3-.1.4-.4.4-.7 0-.2-.1-.5-.3-.6a3 3 0 0 0-1-.4l-.8-.2c-.4 0-.9-.3-1.2-.6-.5-.5-.6-1.4-.1-2q.3-.45.9-.6c.4-.2.7-.2 1.1-.2.5 0 1 .1 1.4.3s.7.6.9 1l-.9.4c-.3-.5-.8-.9-1.4-.8-.3 0-.6 0-.9.2-.2.1-.4.3-.4.6 0 .2 0 .4.3.6.2.2.5.3.8.3l.9.2c.5.1 1 .3 1.4.7.3.3.5.7.4 1.1 0 .4-.1.7-.3 1s-.5.5-.9.7-.8.2-1.2.2c-.6 0-1.2-.2-1.7-.5Zm5.1-8.4h1v5.4l2.9-2.9h1.3l-2.4 2.4 2.5 3.6h-1.2l-2-2.9-1.1 1.1v1.9h-1v-8.5Zm6.5 8.4c-.4-.3-.8-.7-.9-1.2l.9-.4c.1.3.4.6.7.8s.6.3 1 .3c.3 0 .7 0 1-.2.2-.1.4-.4.4-.7 0-.2-.1-.5-.3-.6a3 3 0 0 0-1-.4l-.7-.2c-.4 0-.9-.3-1.2-.6-.5-.5-.6-1.4-.1-2 .2-.3.5-.5.8-.6.4-.2.7-.2 1.1-.2.5 0 1 .1 1.4.3s.7.6.9 1l-.9.4c-.2-.6-.9-1-1.5-.9-.3 0-.6 0-.9.2-.2.1-.4.3-.4.6 0 .2 0 .4.3.6.2.2.5.3.8.3l.9.2c.5 0 1 .3 1.4.7a1.6 1.6 0 0 1 .2 2.1c-.2.3-.5.5-.9.7s-.8.2-1.2.2c-.6 0-1.1-.1-1.6-.4Zm550.8 77.5h2.9c.5 0 .9.1 1.3.3s.8.5 1 .9c.5.8.5 1.8 0 2.6-.2.4-.6.7-1 .9s-.9.3-1.3.3h-1.9v3.5h-1v-8.6Zm3 4.1c.3 0 .6 0 .8-.2q.3-.15.6-.6.45-.75 0-1.5-.15-.3-.6-.6c-.3-.2-.5-.2-.8-.2h-1.9v3.1zm3.8-1.6h1v1c.1-.4.4-.6.7-.8.5-.4 1.2-.4 1.8-.2v1.1c-.3-.1-.6-.2-.9-.2s-.6 0-.8.3c-.3.2-.5.4-.6.7s-.2.6-.2.9v3.4h-1v-6.1Zm5.2 5.9c-.5-.3-.8-.7-1.1-1.2s-.4-1.1-.4-1.7.1-1.1.4-1.6c.2-.5.6-.9 1-1.2.5-.3 1-.5 1.6-.4.5 0 1.1.1 1.6.4.4.3.8.7 1 1.1.2.5.4 1.1.4 1.6v.3H730q0 .6.3 1.2c.2.3.4.6.8.7.3.2.7.2 1 .2.8 0 1.5-.4 1.8-1.1l.9.4c-.2.5-.6.9-1.1 1.2s-1.1.5-1.7.4c-.6 0-1.1-.1-1.6-.4Zm3.4-3.5c0-.3 0-.5-.2-.8a.9.9 0 0 0-.6-.6c-.3-.2-.6-.3-1-.3-.5 0-.9.2-1.2.5s-.6.8-.7 1.2zm2.8 3.4c-.4-.3-.8-.7-.9-1.2l.9-.4c.1.3.4.6.7.9.3.2.6.3 1 .3.3 0 .7 0 1-.2.3-.1.4-.4.4-.7 0-.2-.1-.5-.3-.6a3 3 0 0 0-1-.4l-.8-.2c-.4 0-.9-.3-1.2-.6s-.5-.7-.5-1.1c0-.3.1-.7.3-.9.2-.3.5-.5.8-.6.4-.2.7-.2 1.1-.2.5 0 1 .1 1.4.4.4.2.7.6.9 1l-.9.4c-.3-.5-.8-.9-1.5-.8-.3 0-.6 0-.9.2-.2.1-.4.3-.4.6 0 .2 0 .4.3.6.2.2.5.3.8.3l.9.2c.5.1 1 .3 1.4.7a1.6 1.6 0 0 1 .2 2.1c-.2.3-.5.5-.9.7s-.8.2-1.2.2c-.6 0-1.2-.2-1.7-.5Zm6.4.1c-.5-.3-.8-.7-1.1-1.2s-.4-1.1-.4-1.7.1-1.1.4-1.6c.2-.5.6-.9 1-1.2.5-.3 1-.5 1.5-.4.5 0 1.1.1 1.6.4.4.3.8.7 1 1.1.2.5.4 1.1.4 1.6v.3h-4.8q0 .6.3 1.2c.2.3.4.6.8.7.3.2.7.2 1 .2.8 0 1.5-.4 1.8-1.1l.9.4c-.2.5-.6.9-1.1 1.2s-1.1.5-1.7.4c-.6 0-1.1-.1-1.6-.4Zm3.3-3.5c0-.3 0-.5-.2-.8a.9.9 0 0 0-.6-.6c-.3-.2-.6-.3-1-.3-.5 0-.9.2-1.2.5s-.6.8-.7 1.2zm2.3-2.4h1v.9c.2-.3.5-.6.8-.8a2.7 2.7 0 0 1 2.9.3q.6.75.6 1.8v3.9h-1v-3.8c0-.5-.1-.9-.4-1.2s-.7-.4-1.1-.4c-.3 0-.6 0-.9.3-.3.2-.5.4-.6.7s-.2.6-.2.9v3.4h-1v-6.1Zm8.1 6.2c-.2 0-.4-.2-.5-.3-.3-.3-.5-.8-.5-1.3v-3.6h-1.1v-.9h1.1v-1.7h1v1.7h1.5v.9h-1.5v3.4c0 .3 0 .5.2.8.2.2.4.3.7.3.2 0 .5 0 .7-.2v1c-.1 0-.2 0-.4.1h-1.2Zm3.4-.2c-.3-.2-.6-.4-.8-.7s-.3-.7-.3-1.1c0-.6.2-1.2.7-1.5a3 3 0 0 1 1.8-.6c.3 0 .7 0 1 .1.3 0 .5.1.7.3v-.4c0-.4-.2-.8-.5-1.1s-.8-.4-1.2-.4c-.3 0-.7 0-.9.2-.3.1-.5.3-.7.6l-.8-.6c.2-.4.6-.7 1-.9s.9-.3 1.4-.3c.7 0 1.4.2 2 .7.5.5.7 1.1.7 1.8v3.9h-1v-.9c-.2.3-.5.6-.8.8q-.6.3-1.2.3c-.4 0-.8 0-1.2-.3Zm2.2-.9c.3-.2.5-.4.7-.7s.3-.6.3-1c-.2-.1-.5-.2-.7-.3-.3 0-.6-.1-.9-.1-.5 0-.9 0-1.3.4-.3.2-.4.6-.4.9s.1.6.4.8.6.3 1 .3c.3 0 .6 0 .9-.2Zm4.9 1.1c-.2 0-.4-.2-.5-.3-.3-.3-.5-.8-.5-1.3v-3.6H765v-.9h1.1v-1.7h1v1.7h1.5v.9h-1.5v3.4c0 .3 0 .5.2.8.2.2.4.3.7.3.2 0 .5 0 .7-.2v1c-.1 0-.2 0-.4.1h-1.1Zm2.9-7.5c-.3-.3-.3-.7 0-1 .1-.1.3-.2.5-.2.4 0 .7.3.7.7 0 .2 0 .4-.2.5-.1.1-.3.2-.5.2s-.4 0-.5-.2m0 1.3h1v6.1h-1zm3.8 5.9c-.5-.3-.9-.7-1.1-1.2-.3-.5-.4-1.1-.4-1.6 0-.6.1-1.1.4-1.6s.7-.9 1.1-1.2c1-.6 2.2-.6 3.2 0 .5.3.9.7 1.1 1.2.3.5.4 1.1.4 1.6 0 .6-.1 1.1-.4 1.6s-.6.9-1.1 1.2c-1 .6-2.2.6-3.2 0m2.6-.8c.3-.2.6-.5.8-.8.4-.8.4-1.7 0-2.5-.2-.3-.5-.6-.8-.8-.7-.4-1.5-.4-2.1 0-.3.2-.6.5-.8.8-.4.8-.4 1.7 0 2.5.2.3.5.6.8.8.7.4 1.5.4 2.1 0m3.2-5.1h1v.9c.2-.3.5-.6.8-.8a2.7 2.7 0 0 1 2.9.3q.6.75.6 1.8v3.9h-1v-3.8c0-.5-.1-.9-.4-1.2s-.7-.4-1.1-.4c-.3 0-.6 0-.9.3-.3.2-.5.4-.6.7s-.2.6-.2.9v3.4h-1v-6.1Zm10.6 5.9c-.4-.3-.8-.7-1-1.2-.5-1.1-.5-2.3 0-3.3.2-.5.6-.9 1-1.2s1-.4 1.5-.4c.4 0 .9.1 1.2.3s.6.5.8.8v-3.4h1v8.6h-1v-.9c-.2.3-.5.6-.8.8q-.6.3-1.2.3c-.5 0-1.1-.1-1.5-.4m2.6-.8c.3-.2.6-.5.7-.8.4-.8.4-1.7 0-2.4-.2-.3-.4-.6-.7-.8-.6-.4-1.4-.4-2 0-.3.2-.6.5-.8.8-.4.8-.4 1.7 0 2.4.2.3.4.6.8.8.6.4 1.4.4 2 0m4.6.8c-.5-.3-.8-.7-1.1-1.2s-.4-1.1-.4-1.7.1-1.1.4-1.6c.2-.5.6-.9 1-1.2.5-.3 1-.5 1.6-.4.5 0 1.1.1 1.6.4.4.3.8.7 1 1.1.2.5.4 1.1.4 1.6v.3h-4.8q0 .6.3 1.2c.2.3.4.6.8.7.3.2.7.2 1 .2.8 0 1.5-.4 1.8-1.1l.9.4c-.2.5-.6.9-1.1 1.2s-1.1.5-1.7.4c-.6 0-1.1-.1-1.6-.4Zm3.4-3.5c0-.3 0-.5-.2-.8a.9.9 0 0 0-.6-.6c-.3-.2-.6-.3-1-.3-.5 0-.9.2-1.2.5s-.6.8-.7 1.2zm2.2-4.9h1v8.6h-1zm3.3 8.5c-.3-.2-.6-.4-.8-.7s-.3-.7-.3-1.1c0-.6.2-1.2.7-1.5a3 3 0 0 1 1.8-.6c.3 0 .7 0 1 .1.3 0 .5.1.7.3v-.4c0-.4-.2-.8-.5-1.1s-.8-.4-1.2-.4c-.3 0-.7 0-.9.2-.3.1-.5.3-.7.6l-.8-.6c.2-.4.6-.7 1-.9s.9-.3 1.4-.3c.7 0 1.4.2 2 .7.5.5.7 1.1.7 1.8v3.9h-1v-.9c-.2.3-.5.6-.8.8q-.6.3-1.2.3c-.4 0-.9 0-1.3-.3Zm2.2-.9c.3-.2.5-.4.7-.7s.3-.6.3-1c-.2-.1-.5-.2-.7-.3-.3 0-.6-.1-.9-.1-.4 0-.9 0-1.3.4-.3.2-.4.5-.4.9 0 .3.1.6.4.8s.6.3 1 .3c.3 0 .6 0 .9-.2Zm5.1.6-2.5-5.7h1.1l1.9 4.6 1.8-4.6h1.1l-3.8 8.7h-1.1l1.4-3ZM920.2 43.2h5v1h-4v2.9h3.6v1h-3.6v3.7h-1v-8.7Zm5.9 2.5h1v1c.1-.4.4-.6.7-.8s.7-.3 1.1-.3c.2 0 .5 0 .7.1v1.1c-.3-.1-.6-.2-.9-.2s-.6 0-.8.2c-.3.2-.5.4-.6.7s-.2.6-.2.9v3.4h-1zm5.1 6c-.3-.2-.6-.4-.8-.7s-.3-.7-.3-1c0-.6.3-1.2.7-1.5.5-.4 1.2-.6 1.8-.5.3 0 .7 0 1 .1.3 0 .5.2.7.3V48c0-.4-.2-.8-.5-1.1s-.8-.4-1.2-.4c-.3 0-.6 0-.9.2-.3.1-.5.4-.7.6l-.8-.6c.2-.4.6-.7 1-.9s.9-.3 1.4-.3c.7 0 1.4.2 2 .7.5.5.7 1.1.7 1.8v3.9h-1V51c-.2.3-.5.6-.8.8q-.6.3-1.2.3t-1.2-.3Zm2.2-.9c.3-.2.5-.4.7-.7s.3-.6.3-1c-.2-.1-.5-.2-.7-.3-.3 0-.6-.1-.9-.1-.4 0-.9 0-1.3.3-.3.2-.4.5-.4.9 0 .3.1.6.4.8s.6.3 1 .3c.3 0 .6 0 .9-.2m3.4-5.1h1v.9c.2-.3.5-.6.8-.8s.7-.3 1.1-.3q.6 0 1.2.3c.3.2.6.5.7.9.2-.4.5-.6.8-.9q.6-.3 1.2-.3c.6 0 1.2.2 1.6.7s.6 1.1.5 1.7v3.9h-1V48c0-.4 0-.9-.3-1.2s-.6-.4-1-.4c-.3 0-.6 0-.8.3-.2.2-.4.4-.6.7-.1.3-.2.7-.2 1v3.5h-1v-3.8c0-.4 0-.9-.3-1.2s-.6-.4-1-.4c-.3 0-.6 0-.8.3-.3.2-.5.4-.6.7s-.2.7-.2 1v3.4h-1v-6.2Zm11.6 5.9c-.5-.3-.8-.7-1.1-1.2s-.4-1.1-.4-1.7.1-1.1.4-1.6c.2-.5.6-.9 1-1.2.5-.3 1-.5 1.6-.5.5 0 1.1.1 1.6.4.4.3.8.6 1 1.1s.4 1.1.4 1.6v.3h-4.8q0 .6.3 1.2c.2.3.4.6.8.7.3.2.7.2 1 .2.8 0 1.5-.4 1.8-1.1l.9.4c-.5 1-1.6 1.7-2.8 1.6-.6 0-1.1-.1-1.6-.4Zm3.4-3.5c0-.3 0-.5-.2-.8-.1-.3-.3-.5-.6-.7s-.6-.3-1-.3c-.5 0-.9.2-1.2.5s-.6.8-.7 1.2h3.7Zm5-2.4h1v.9c.2-.3.5-.6.8-.8.4-.2.8-.3 1.3-.3s1 .1 1.5.4c.4.3.8.7 1 1.2.5 1.1.5 2.3 0 3.3-.2.5-.6.9-1 1.2s-1 .4-1.5.4c-.4 0-.9-.1-1.3-.3-.3-.2-.6-.4-.8-.8v3.5h-1zm4 5.1c.3-.2.6-.5.8-.8.4-.8.4-1.7 0-2.5-.2-.3-.4-.6-.8-.8-.6-.4-1.4-.4-2 0-.3.2-.6.5-.8.8-.4.8-.4 1.7 0 2.5.2.3.4.6.8.8.6.4 1.4.4 2 0m3.1-5.1h1v1c.1-.4.4-.6.7-.8s.7-.3 1.1-.3c.2 0 .5 0 .7.1v1.1c-.3-.1-.6-.2-.9-.2s-.6 0-.8.2c-.3.2-.5.4-.6.7s-.2.6-.2.9v3.4h-1zm5.3 5.9c-.5-.3-.8-.7-1.1-1.2s-.4-1.1-.4-1.7.1-1.1.4-1.6c.2-.5.6-.9 1-1.2.5-.3 1-.5 1.5-.5s1.1.1 1.6.4c.4.3.8.7 1 1.1.2.5.4 1.1.3 1.6v.3h-4.8q0 .6.3 1.2c.2.3.5.6.8.7.3.2.7.2 1 .2.8 0 1.5-.4 1.8-1.1l.9.4c-.8 1.5-2.7 2.1-4.2 1.2Zm3.4-3.5c0-.3 0-.5-.2-.8-.1-.3-.4-.5-.6-.7-.3-.2-.6-.3-1-.3-.5 0-.9.2-1.2.5s-.6.8-.7 1.2h3.7Zm2.8 3.4c-.4-.3-.8-.7-.9-1.2l.9-.4c.1.3.4.6.7.8s.6.3 1 .3c.3 0 .7 0 1-.2.4-.2.5-.6.3-1q0-.15-.3-.3a3 3 0 0 0-1-.4l-.7-.2c-.4 0-.9-.3-1.2-.6s-.5-.7-.5-1.1c0-.3.1-.7.3-.9.2-.3.5-.5.8-.6.4-.1.7-.2 1.1-.2.5 0 1 .1 1.4.3s.7.6.9 1l-.9.4c-.3-.5-.8-.9-1.5-.8-.3 0-.6 0-.9.2-.2.1-.4.3-.4.6 0 .2 0 .4.3.5.2.2.5.3.8.3l.9.2c.5 0 .9.3 1.3.6a1.6 1.6 0 0 1 .2 2.1c-.2.3-.5.5-.9.7s-.8.3-1.3.2c-.6 0-1.1-.1-1.6-.5Zm6.4.1c-.5-.3-.8-.7-1.1-1.2s-.4-1.1-.4-1.7.1-1.1.4-1.6c.2-.5.6-.9 1-1.2.5-.3 1-.5 1.5-.5s1.1.1 1.6.4c.4.3.8.7 1 1.1.2.5.4 1.1.3 1.6v.3h-4.8q0 .6.3 1.2c.2.3.4.6.8.7.3.2.7.2 1 .2.8 0 1.5-.4 1.8-1.1l.9.4c-.8 1.5-2.7 2.1-4.2 1.2Zm3.3-3.5c0-.3 0-.5-.2-.8-.1-.3-.4-.5-.6-.7-.3-.2-.6-.3-1-.3-.5 0-.9.2-1.2.5s-.6.8-.7 1.2h3.7Zm2.3-2.4h1v.9c.2-.3.5-.6.8-.8q.6-.3 1.2-.3c.6 0 1.2.2 1.7.7.4.5.6 1.1.6 1.7v3.9h-1V48c0-.5-.1-.9-.4-1.2s-.7-.4-1.1-.4c-.3 0-.6 0-.9.3-.3.2-.5.4-.6.7s-.2.6-.2.9v3.5h-1v-6.1Zm8.1 6.2c-.2 0-.4-.2-.5-.3-.3-.3-.5-.8-.5-1.3v-3.6h-1.1v-.9h1.1v-1.7h1v1.7h1.5v.9h-1.5v3.4c0 .3 0 .5.2.8.2.2.4.3.7.3.2 0 .5 0 .7-.2v1c-.1 0-.2 0-.4.1h-1.2Zm3.6-.3c-.5-.3-.8-.7-1.1-1.2s-.4-1.1-.4-1.7.1-1.1.4-1.6c.2-.5.6-.9 1-1.1.5-.3 1-.5 1.6-.5.5 0 1.1.1 1.6.4.4.3.8.6 1 1.1s.4 1.1.4 1.6v.3h-4.8q0 .6.3 1.2c.2.3.4.6.8.7.3.2.7.2 1 .2.8 0 1.5-.4 1.8-1.1l.9.4c-.2.5-.6.9-1.1 1.2s-1.1.5-1.7.4c-.6 0-1.1-.2-1.6-.5Zm3.3-3.5c0-.3 0-.5-.2-.8-.1-.3-.3-.5-.6-.7s-.6-.3-1-.3c-.5 0-.9.2-1.2.5s-.6.8-.7 1.2h3.7Zm3.5 3.5c-.4-.3-.8-.7-1-1.2-.5-1.1-.5-2.3 0-3.3.2-.5.6-.9 1-1.2s1-.4 1.5-.4c.4 0 .9.1 1.2.3s.6.5.8.8v-3.4h1v8.6h-1v-.9c-.2.3-.5.6-.8.8q-.6.3-1.2.3c-.5 0-1.1-.1-1.5-.4m2.6-.8c.3-.2.6-.5.7-.8.4-.8.4-1.7 0-2.5-.2-.3-.4-.6-.7-.8-.6-.4-1.4-.4-2 0-.3.2-.6.5-.8.8-.4.8-.4 1.7 0 2.4.2.3.4.6.8.8.6.4 1.4.4 2 0Zm3.6.8c-.1-.1-.2-.3-.2-.5 0-.4.4-.8.8-.8.2 0 .4 0 .5.2.1.1.2.3.2.5s0 .4-.2.5c-.3.3-.8.3-1.1 0Zm0-5.5v-2.9h1v6.1h-.9v-3.1Zm-765.7-2.9h1v8.6h-1zm2.7 2.5h1v.9c.2-.3.5-.6.8-.8q.6-.3 1.2-.3c.6 0 1.2.2 1.7.7.4.5.6 1.1.6 1.7v3.9h-1V48c0-.5-.1-.9-.4-1.2s-.7-.4-1.1-.4c-.3 0-.6 0-.9.3-.3.2-.5.4-.6.7s-.2.6-.2.9v3.5h-1v-6.1Zm6.7 0h1v.9c.2-.3.5-.6.8-.8.4-.2.8-.3 1.3-.3s1 .1 1.5.4c.4.3.8.7 1 1.2.5 1.1.5 2.3 0 3.3-.2.5-.6.9-1 1.2s-1 .4-1.5.4c-.4 0-.9-.1-1.3-.3-.3-.2-.6-.4-.8-.8v3.5h-1zm4 5.1c.3-.2.6-.5.8-.8.4-.8.4-1.7 0-2.5-.2-.3-.4-.6-.8-.8-.6-.4-1.4-.4-2 0-.3.2-.6.5-.8.8-.4.8-.4 1.7 0 2.5.2.3.4.6.8.8.6.4 1.4.4 2 0m3.7.6a3 3 0 0 1-.6-1.8v-3.8h1v3.7c0 .5.1.9.4 1.3.3.3.7.4 1.1.4.3 0 .6 0 .9-.3.5-.4.9-1 .8-1.7v-3.5h1v6.1h-1v-.9c-.2.3-.5.6-.8.8q-.6.3-1.2.3c-.6 0-1.2-.2-1.6-.7Zm7.9.5c-.2 0-.4-.2-.5-.3-.3-.3-.5-.8-.5-1.3v-3.6h-1.1v-.9h1.1v-1.7h1v1.7h1.5v.9h-1.5v3.4c0 .3 0 .5.2.8.2.2.4.3.7.3.2 0 .5 0 .7-.2v1c-.1 0-.2 0-.4.1h-1.2Zm5.6-6.2h1v1c.1-.4.4-.6.7-.8s.7-.3 1.1-.3c.2 0 .5 0 .7.1v1.1c-.3-.1-.6-.2-.9-.2s-.6 0-.8.2c-.3.2-.5.4-.6.7s-.2.6-.2.9v3.4h-1zm5.2 5.9c-.5-.3-.8-.7-1.1-1.2s-.4-1.1-.4-1.7.1-1.1.4-1.6c.2-.5.6-.9 1.1-1.1.5-.3 1-.5 1.5-.5s1.1.1 1.6.4c.4.3.8.6 1 1.1s.4 1.1.4 1.6v.3h-4.8q0 .6.3 1.2c.2.3.4.6.8.7.3.2.7.2 1 .2.8 0 1.5-.4 1.8-1.1l.9.4c-.2.5-.6.9-1.1 1.2s-1.1.5-1.6.4c-.6 0-1.1-.2-1.6-.5Zm3.4-3.5c0-.3 0-.5-.2-.8-.1-.3-.3-.5-.6-.7s-.6-.3-1-.3c-.5 0-.9.2-1.2.5s-.6.8-.7 1.2h3.7Zm3.5 3.5c-.5-.3-.8-.7-1.1-1.2-.5-1-.5-2.3 0-3.3.2-.5.6-.9 1.1-1.2s1-.4 1.6-.4 1.2.1 1.7.5c.5.3.8.7 1 1.2l-.9.4c-.1-.4-.4-.7-.7-.9a2 2 0 0 0-2.1 0c-.3.2-.6.5-.8.8q-.3.6-.3 1.2c0 .4 0 .8.3 1.2.2.3.4.6.8.8.3.2.6.3 1 .3s.8 0 1.1-.3c.3-.2.6-.5.7-.8l.9.4c-.2.5-.6.9-1 1.2-.5.3-1.1.5-1.7.5s-1.1-.1-1.6-.4m6.4 0c-.5-.3-.8-.7-1.1-1.2s-.4-1.1-.4-1.7.1-1.1.4-1.6c.2-.5.6-.9 1-1.2.5-.3 1-.5 1.6-.5.5 0 1.1.1 1.6.4.4.3.8.6 1 1.1s.4 1.1.4 1.6v.3h-4.9q0 .6.3 1.2c.2.3.4.6.8.7.3.2.7.2 1 .2.8 0 1.5-.4 1.8-1.1l.9.4c-.2.5-.6.9-1.1 1.2s-1.1.5-1.6.4c-.6 0-1.1-.1-1.6-.4Zm3.4-3.5c0-.3 0-.5-.2-.8-.1-.3-.3-.5-.6-.7s-.6-.3-1-.3c-.5 0-.9.2-1.2.5s-.6.8-.7 1.2h3.7Zm2.3-3.8c-.1-.1-.2-.3-.2-.5 0-.4.3-.7.7-.7.2 0 .4 0 .5.2.1.1.2.3.2.5s0 .4-.2.5c-.1.1-.3.2-.5.2s-.4 0-.5-.2m0 1.4h1v6.1h-1zm2 0h1.1l1.9 4.9 1.9-4.9h1.1l-2.5 6.1h-1zm7.8 5.9c-.5-.3-.8-.7-1.1-1.2s-.4-1.1-.4-1.7.1-1.1.4-1.6c.2-.5.6-.9 1-1.2.5-.3 1-.5 1.5-.5s1.1.1 1.6.4c.4.3.8.7 1 1.1.2.5.4 1.1.4 1.6v.3h-4.9q0 .6.3 1.2c.2.3.4.6.8.7.3.2.7.2 1 .2.8 0 1.5-.4 1.8-1.1l.9.4c-.2.5-.6.9-1.1 1.2-1 .6-2.2.6-3.2 0Zm3.3-3.5c0-.3 0-.5-.2-.8-.1-.3-.3-.5-.6-.7s-.6-.3-1-.3c-.5 0-.9.2-1.2.5s-.6.8-.7 1.2h3.7Zm3.5 3.5c-.4-.3-.8-.7-1-1.2-.5-1.1-.5-2.3 0-3.3.2-.5.6-.9 1-1.2s1-.4 1.5-.4c.4 0 .9.1 1.2.3s.6.5.8.8v-3.3h1v8.6h-1V51c-.2.3-.5.6-.8.8q-.6.3-1.2.3c-.5 0-1-.1-1.4-.4Zm2.6-.8c.3-.2.6-.5.8-.8.4-.8.4-1.7 0-2.5-.2-.3-.4-.6-.8-.8-.3-.2-.6-.3-1-.3s-.7 0-1 .3c-.3.2-.6.5-.8.8-.4.8-.4 1.7 0 2.4.2.3.4.6.8.8.3.2.6.3 1 .3s.7 0 1-.3Zm-113.3 97.9h1v8.6h-1zm2.7 2.5h1v.9c.2-.3.5-.6.8-.8a2.7 2.7 0 0 1 2.9.3q.6.75.6 1.8v3.9h-1v-3.8c0-.5-.1-.9-.4-1.2s-.7-.4-1.1-.4c-.3 0-.6 0-.9.3-.3.2-.5.4-.6.7s-.2.6-.2.9v3.4h-1v-6.1Zm6.7 0h1v.9c.2-.3.5-.6.8-.8q.6-.3 1.2-.3c.5 0 1 .1 1.5.4.4.3.8.7 1 1.2.5 1.1.5 2.3 0 3.3-.2.5-.6.9-1 1.2s-1 .4-1.5.4c-.4 0-.9-.1-1.2-.3s-.6-.5-.8-.8v3.5h-1zm4 5.1c.3-.2.6-.5.7-.8.4-.8.4-1.7 0-2.4-.2-.3-.4-.6-.7-.8s-.6-.3-1-.3-.7 0-1 .3c-.3.2-.6.5-.7.8-.4.8-.4 1.7 0 2.4.2.3.4.6.7.8s.6.3 1 .3.7 0 1-.3m3.7.6a3 3 0 0 1-.6-1.8v-3.9h1v3.7c0 .5.1.9.4 1.3.3.3.7.4 1.1.4.3 0 .6 0 .9-.3.3-.2.5-.4.6-.7s.2-.6.2-.9v-3.5h1v6.1h-1v-.9c-.2.3-.5.6-.8.8a2.7 2.7 0 0 1-2.9-.3Zm7.9.5c-.2 0-.4-.2-.5-.3-.3-.3-.5-.8-.5-1.3v-3.6H230v-.9h1.1v-1.7h1v1.7h1.5v.9h-1.5v3.4c0 .3 0 .5.2.8.2.2.4.3.7.3.2 0 .5 0 .7-.2v1c-.1 0-.2 0-.4.1h-1.2Zm6.6-.3c-.4-.3-.8-.7-1-1.2-.5-1.1-.5-2.3 0-3.3.2-.5.6-.9 1-1.2s1-.4 1.5-.4c.4 0 .9.1 1.2.3s.6.5.8.8v-3.4h1v8.6h-1v-.9c-.2.3-.5.6-.8.8q-.6.3-1.2.3c-.5 0-1.1-.1-1.5-.4m2.6-.8c.3-.2.6-.5.7-.8.4-.8.4-1.7 0-2.4-.2-.3-.4-.6-.7-.8-.6-.4-1.4-.4-2 0-.3.2-.6.5-.8.8-.4.8-.4 1.7 0 2.4.2.3.4.6.8.8.6.4 1.4.4 2 0m4.6.8c-.5-.3-.8-.7-1.1-1.2s-.4-1.1-.4-1.7.1-1.1.4-1.6c.2-.5.6-.9 1-1.2.5-.3 1-.5 1.6-.4.5 0 1.1.1 1.6.4.4.3.8.7 1 1.1.2.5.4 1.1.4 1.6v.3h-4.9q0 .6.3 1.2c.2.3.4.6.8.7.3.2.7.2 1 .2.8 0 1.5-.4 1.8-1.1l.9.4c-.2.5-.6.9-1.1 1.2s-1.1.5-1.6.4c-.6 0-1.1-.1-1.6-.4Zm3.4-3.5c0-.3 0-.5-.2-.8a.9.9 0 0 0-.6-.6c-.3-.2-.6-.3-1-.3-.5 0-.9.2-1.2.5s-.6.8-.7 1.2zm2.2-4.9h1v8.6h-1zm3.3 8.5c-.3-.2-.6-.4-.8-.7s-.3-.7-.3-1.1c0-.6.2-1.2.7-1.5a3 3 0 0 1 1.8-.6c.3 0 .7 0 1 .1.3 0 .5.1.7.3v-.4c0-.4-.2-.8-.5-1.1s-.8-.4-1.2-.4c-.3 0-.7 0-.9.2-.3.1-.5.3-.7.6l-.8-.6c.2-.4.6-.7 1-.9s.9-.3 1.4-.3c.7 0 1.4.2 2 .7.5.5.7 1.1.7 1.8v3.9h-1v-.9c-.2.3-.5.6-.8.8q-.6.3-1.2.3c-.4 0-.9 0-1.2-.3Zm2.2-.9c.3-.2.5-.4.7-.7s.3-.6.3-1c-.2-.1-.5-.2-.7-.3-.3 0-.6-.1-.9-.1-.4 0-.9 0-1.3.4-.3.2-.4.5-.4.9 0 .3.1.6.4.8s.6.3 1 .3c.3 0 .6 0 .9-.2Zm5.1.6-2.5-5.7h1.1l1.9 4.6 1.9-4.6h1.1l-3.8 8.7h-1.1z" class="st10"/><path d="M874.9 126.8v-.5" class="st5"/><path d="M874.9 120.6V90.1" class="st6"/><path d="M874.9 87.2v-.5" class="st5"/><rect width="58.8" height="41.1" x="845.6" y="30.5" class="st5" rx="3.6" ry="3.6"/><path d="M845.6 65.9h58.7" class="st4"/><path d="M873 68.8h3.9" class="st5"/><path d="m868.6 71.4-.7 4.7m14.1 0-.8-4.7" class="st4"/><path d="M863.1 76.1h23.7V79h-23.7z" class="st5"/><path d="m874.9 37 3.7 7.4 8.1 1.1-5.9 5.8 1.4 8.1-7.3-3.8-7.2 3.8 1.3-8.1-5.8-5.8 8.1-1.1z" class="st0"/><path d="M797.7 222.9s-.9 9.3 8.4 9.3h21.8c9.3 0 8.4 9.3 8.4 9.3s-.9-9.3 8.4-9.3h21.8c9.3 0 8.4-9.3 8.4-9.3" class="st5"/><path d="M221.9 78c-.3 0-.5-.1-.7-.4l-7-12.8-6.6 6.4c-.1.1-.3.2-.5.2h-.3c-.3-.1-.5-.4-.5-.7V35.2c0-.3.2-.6.5-.7h.3c.2 0 .4 0 .5.2l25.9 25c.2.2.3.5.2.8s-.4.5-.7.5h-9.8l6.7 12.1c0 .2.1.4 0 .6 0 .2-.2.3-.4.4l-7.3 4h-.4Z" style="fill:#231f20"/><path d="m207.1 35.1 25.9 25h-11.1l7.3 13.2-7.3 4-7.5-13.7-7.3 7.1zm0-1.5c-.2 0-.4 0-.6.1-.6.2-.9.8-.9 1.4v35.6c0 .6.4 1.1.9 1.4.2 0 .4.1.6.1.4 0 .7-.2 1-.4l5.9-5.7 6.6 12c.3.5.8.8 1.3.8.3 0 .5 0 .7-.2l7.3-4c.7-.4 1-1.3.6-2l-6.1-11h8.5c.8 0 1.5-.6 1.5-1.5 0-.4-.2-.8-.5-1.1l-25.9-25c-.3-.3-.6-.4-1-.4Z" class="st9"/><path d="M759.1 253.1c-.7-.4-1.2-.9-1.6-1.6a4.7 4.7 0 0 1 0-4.6c.4-.7.9-1.2 1.6-1.6s1.5-.6 2.3-.6a4.5 4.5 0 0 1 3.2 1.4l-.7.7a3 3 0 0 0-2.4-1.2c-.6 0-1.2.1-1.7.4q-.75.45-1.2 1.2c-.3.6-.5 1.2-.5 1.8s.1 1.3.5 1.9q.45.75 1.2 1.2c.5.3 1.1.4 1.7.4 1 0 2-.4 2.6-1.2l.7.7c-.4.5-.9.9-1.5 1.1a4.7 4.7 0 0 1-4.2-.2Zm7.9.1c-.5-.3-.9-.7-1.1-1.2-.5-1-.5-2.3 0-3.3.3-.5.6-.9 1.1-1.2 1.5-.9 3.4-.4 4.3 1.1v.1c.5 1 .5 2.3 0 3.3-.9 1.5-2.8 2.1-4.4 1.2Zm2.7-.8c.3-.2.6-.5.8-.8.4-.8.4-1.7 0-2.5-.2-.3-.4-.6-.8-.8-.3-.2-.6-.3-1-.3s-.7 0-1 .3c-.3.2-.6.5-.8.8-.4.8-.4 1.7 0 2.5.2.3.5.6.8.8s.7.3 1 .3.7-.1 1-.3m3.1-5.1h1v.9c.4-.7 1.1-1.1 1.9-1.1q.6 0 1.2.3c.3.2.6.5.7.9q.3-.6.9-.9t1.2-.3c.6 0 1.2.2 1.6.6.4.5.6 1.1.5 1.8v3.9h-1v-3.8c0-.4 0-.9-.3-1.2s-.6-.4-1-.4c-.3 0-.6 0-.8.3-.3.2-.5.4-.6.7s-.2.7-.2 1v3.5h-1v-3.8c0-.4 0-.9-.3-1.2s-.6-.4-1-.4c-.3 0-.6 0-.8.3-.3.2-.5.4-.6.7s-.2.7-.2 1v3.4h-1v-6.1Zm10.5 0h1v.9c.2-.3.5-.6.8-.8.4-.2.8-.3 1.3-.3s1 .1 1.5.4c.4.3.8.7 1 1.2.5 1.1.5 2.3 0 3.3-.2.5-.6.9-1 1.2s-1 .4-1.5.4c-.4 0-.9-.1-1.3-.3-.3-.2-.6-.4-.8-.8v3.5h-1zm4 5.1c.3-.2.6-.5.7-.8q.3-.6.3-1.2c0-.4 0-.8-.3-1.2-.2-.3-.4-.6-.7-.8s-.6-.3-1-.3-.7.1-1 .3-.6.5-.8.8q-.3.6-.3 1.2c0 .4 0 .8.3 1.2.2.3.4.6.8.8.3.2.6.3 1 .3s.7-.1 1-.3m4.4.8c-.5-.3-.9-.7-1.1-1.2-.5-1-.5-2.3 0-3.3.3-.5.6-.9 1.1-1.2 1.5-.9 3.4-.4 4.3 1.1v.1c.5 1 .5 2.3 0 3.3-.9 1.5-2.8 2.1-4.4 1.2Zm2.6-.8c.3-.2.6-.5.8-.8.4-.8.4-1.7 0-2.5-.2-.3-.4-.6-.8-.8-.3-.2-.7-.3-1-.3-.4 0-.7.1-1 .3s-.6.5-.8.8c-.4.8-.4 1.7 0 2.5.2.3.5.6.8.8s.6.3 1 .3.7 0 1-.3m3.8.8c-.4-.3-.8-.7-.9-1.2l.9-.4c.1.3.4.6.7.9.3.2.6.3 1 .3.3 0 .7 0 1-.2.4-.2.5-.7.3-1 0-.1-.1-.2-.2-.3a3 3 0 0 0-1-.4l-.7-.2c-.4 0-.9-.3-1.2-.6-.6-.5-.6-1.4-.2-2.1.2-.3.5-.5.8-.6.4-.1.8-.2 1.1-.2.5 0 1 .1 1.4.4.4.2.7.6.9 1l-.9.4c-.3-.5-.8-.9-1.5-.8-.3 0-.6 0-.9.2-.2.1-.4.3-.4.6 0 .2 0 .4.3.5.2.2.5.3.8.4l.9.2c.5.1 1 .3 1.4.7a1.6 1.6 0 0 1 .2 2.1q-.3.45-.9.6c-.4.2-.8.2-1.2.2-.6 0-1.2-.2-1.7-.5m5.2-7.2c-.1-.1-.2-.3-.2-.5s0-.4.2-.5c.3-.3.8-.3 1 0 .1.1.2.3.2.5s0 .4-.2.5c-.3.3-.7.3-1 0m0 1.3h1v6.1h-1zm4.2 6.2c-.2 0-.4-.2-.5-.3-.3-.3-.5-.8-.5-1.3v-3.7h-1.1v-.9h1.1v-1.7h1v1.7h1.5v.9h-1.5v3.4c0 .3 0 .5.2.8.2.2.4.3.7.3.2 0 .5 0 .7-.2v1c-.1 0-.2 0-.4.1h-1.2Zm2.9-7.5c-.1-.1-.2-.3-.2-.5s0-.4.2-.5c.3-.3.7-.3 1 0 .1.1.2.3.2.5s0 .4-.2.5c-.3.3-.7.3-1 0m0 1.3h1v6.1h-1zm2.6 0h1v.9c.2-.3.5-.6.8-.8a2.7 2.7 0 0 1 2.9.3q.6.75.6 1.8v3.9h-1v-3.8c0-.4-.1-.9-.4-1.2s-.7-.4-1.1-.4c-.3 0-.6 0-.9.3-.3.2-.5.4-.6.7s-.2.7-.2 1v3.4h-1v-6.2Zm7.6 8.4c-.5-.3-.8-.7-1-1.2l.9-.4c.1.4.4.7.7.9s.7.3 1.1.3c.5 0 1.1-.2 1.5-.5.4-.4.6-1 .5-1.5v-.7c-.2.3-.5.6-.8.8-.9.4-1.9.4-2.7-.1-.4-.3-.8-.7-1-1.1-.5-1.1-.5-2.3 0-3.4.2-.5.6-.9 1-1.2.8-.5 1.8-.5 2.7-.1.3.2.6.5.8.8v-.9h1v5.9c.2 1.5-.9 2.8-2.5 3h-.5c-.6 0-1.2-.1-1.7-.5Zm2.8-3.2c.3-.2.6-.5.7-.8.4-.8.4-1.7 0-2.5-.2-.3-.4-.6-.7-.8s-.6-.3-1-.3-.7 0-1 .3c-.3.2-.6.5-.7.8q-.3.6-.3 1.2c0 .4 0 .9.3 1.2.2.3.4.6.7.8s.6.3 1 .3.7 0 1-.3Zm3.3 2 .7-1c-.2 0-.3-.1-.4-.2s-.2-.3-.2-.5 0-.4.2-.5c.1-.1.3-.2.5-.2s.4 0 .5.2c.1.1.2.3.2.5v.4c0 .2-.2.3-.3.4l-.8 1.2-.5-.3Zm7.6-1.4c-.7-.4-1.2-.9-1.6-1.6s-.6-1.5-.6-2.3c0-2.4 1.9-4.4 4.3-4.5h.1q.9 0 1.8.3c.5.2 1 .6 1.4 1l-.7.7c-.3-.3-.6-.6-1-.8s-.9-.3-1.4-.3c-1.2 0-2.4.6-3 1.7-.3.6-.5 1.2-.5 1.8s.1 1.3.5 1.9c.3.5.7.9 1.3 1.2.5.3 1.1.4 1.7.4.5 0 1 0 1.4-.3.4-.2.7-.4 1-.7.2-.2.4-.5.5-.8s.2-.7.2-1h-3.2v-1h4.1v.6c0 .5 0 1-.2 1.5s-.4.9-.8 1.3c-.8.9-2 1.3-3.2 1.3-.8 0-1.5-.2-2.2-.6Zm7.9-8.2h2.9c.5 0 .9.1 1.3.3s.8.5 1 .9.4.8.4 1.3-.1.9-.4 1.3c-.2.4-.6.7-1 .9s-.9.3-1.3.3h-1.9v3.5h-1v-8.6Zm3 4.1c.3 0 .6 0 .8-.2q.3-.15.6-.6.45-.75 0-1.5-.15-.3-.6-.6c-.3-.2-.5-.2-.8-.2h-1.9v3.2h1.9Zm5.3 4.2c-.5-.3-.9-.7-1.1-1.2-.3-.5-.4-1.2-.4-1.8v-5.4h1v5.5c0 .6.2 1.2.5 1.7.9.9 2.3.9 3.2 0 .4-.5.6-1.1.6-1.7v-5.5h1v5.4c0 .6-.1 1.2-.4 1.8-.2.5-.6.9-1.1 1.2s-1.1.4-1.7.4-1.1-.1-1.6-.4m6 1.3.7-1c-.2 0-.3-.1-.4-.2s-.2-.3-.2-.5 0-.4.2-.5c.1-.1.3-.2.5-.2s.4 0 .5.2c.1.1.2.3.2.5v.4c0 .2-.2.3-.3.4l-.8 1.2-.5-.3Zm6.6-1.1c-.3-.2-.6-.4-.8-.7s-.3-.6-.3-1c0-.6.3-1.2.7-1.5.5-.4 1.2-.6 1.8-.5.3 0 .7 0 1 .1.3 0 .5.1.7.3v-.4c0-.4-.2-.8-.5-1.1s-.8-.4-1.2-.4c-.3 0-.6 0-.9.2-.3.1-.5.4-.7.6l-.8-.6c.2-.4.6-.7 1-.9s.9-.3 1.4-.3c.7 0 1.4.2 2 .6.5.5.7 1.1.7 1.8v3.9h-1v-.9c-.2.3-.5.6-.8.8q-.6.3-1.2.3c-.4 0-.9-.1-1.2-.3Zm2.2-.9c.3-.2.5-.4.7-.7s.3-.6.3-1c-.2-.1-.5-.2-.7-.3-.3 0-.6-.1-.9-.1-.4 0-.9 0-1.3.3-.3.2-.4.6-.4.9s.1.6.4.8.6.3 1 .3c.3 0 .6 0 .9-.2m3.4-5.2h1v.9c.2-.3.5-.6.8-.8a2.7 2.7 0 0 1 2.9.3q.6.75.6 1.8v3.9h-1v-3.8c0-.4-.1-.9-.4-1.2s-.7-.4-1.1-.4c-.3 0-.6 0-.9.3-.3.2-.5.4-.6.7-.2.3-.2.7-.2 1v3.4h-1v-6.2Zm7.8 5.9c-.4-.3-.8-.7-1-1.2-.5-1.1-.5-2.3 0-3.3.2-.5.6-.9 1-1.2s1-.4 1.5-.4c.4 0 .9.1 1.2.3s.6.5.8.8v-3.4h1v8.6h-1v-.9c-.5.7-1.3 1.1-2.1 1.1-.5 0-1.1-.1-1.5-.4Zm2.7-.8c.3-.2.6-.5.7-.8q.3-.6.3-1.2c0-.4 0-.8-.3-1.2-.2-.3-.4-.6-.7-.8-.6-.4-1.4-.4-2 0-.3.2-.6.5-.8.8-.4.8-.4 1.7 0 2.4.2.3.4.6.8.8.6.4 1.4.4 2 0m6.3-5.1h1v1c.1-.3.4-.6.7-.8s.7-.3 1.1-.3c.2 0 .5 0 .7.1v1.1c-.3-.1-.6-.2-.9-.2s-.6 0-.8.2c-.3.2-.5.4-.6.7s-.2.6-.2.9v3.4h-1zm5 6.1c-.3-.2-.6-.4-.8-.7s-.3-.6-.3-1c0-.6.3-1.2.7-1.5.5-.4 1.2-.6 1.8-.5.3 0 .7 0 1 .1.3 0 .5.1.7.3v-.4c0-.4-.2-.8-.5-1.1s-.8-.4-1.2-.4c-.3 0-.6 0-.9.2-.3.1-.5.4-.7.6l-.8-.6c.3-.4.6-.7 1-.9s.9-.3 1.4-.3c.7 0 1.4.2 2 .6.5.5.7 1.1.7 1.8v3.9h-1v-.9c-.2.3-.5.6-.8.8q-.6.3-1.2.3t-1.2-.3Zm2.2-.9c.3-.2.5-.4.7-.7s.3-.6.3-1c-.2-.1-.5-.2-.7-.3-.3 0-.6-.1-.9-.1-.4 0-.9 0-1.3.3-.3.2-.4.6-.4.9s.1.6.4.8.6.3 1 .3c.3 0 .6 0 .9-.2m3.8.7c-.4-.3-.8-.7-.9-1.2l.9-.4c.1.3.4.6.7.9.3.2.6.3 1 .3.3 0 .7 0 1-.2.3-.1.4-.4.4-.7 0-.2-.1-.5-.3-.6a3 3 0 0 0-1-.4l-.8-.2c-.4 0-.9-.3-1.2-.6-.6-.6-.6-1.4-.2-2.1.2-.3.5-.5.8-.6.4-.1.8-.2 1.1-.2.5 0 1 .1 1.4.4.4.2.7.6.9 1l-.9.4c-.3-.5-.8-.9-1.5-.8-.3 0-.6 0-.9.2-.2.1-.4.3-.4.6 0 .2 0 .4.3.5.2.2.5.3.8.4l.9.2c.5.1 1 .3 1.4.7a1.6 1.6 0 0 1 .2 2.1q-.3.45-.9.6c-.4.2-.8.2-1.2.2-.6 0-1.2-.2-1.7-.5Zm6.8.3c-.2 0-.4-.2-.5-.3-.3-.3-.5-.8-.5-1.3v-3.7h-1.1v-.9h1.1v-1.7h1v1.7h1.5v.9h-1.5v3.4c0 .3 0 .5.2.8.2.2.4.3.7.3.2 0 .5 0 .7-.2v1c-.1 0-.2 0-.4.1h-1.2Zm3.6-.3c-.5-.3-.8-.7-1.1-1.2s-.4-1.1-.4-1.7.1-1.1.4-1.6c.2-.5.6-.9 1-1.2.5-.3 1-.4 1.6-.4.5 0 1.1.1 1.6.4.4.3.8.7 1 1.1.2.5.4 1.1.4 1.6v.3h-4.8q0 .6.3 1.2c.2.3.4.6.8.7.3.2.7.2 1 .2.8 0 1.5-.4 1.8-1.1l.9.4c-.2.5-.6.9-1.1 1.2-1 .6-2.2.6-3.2 0Zm3.4-3.4c0-.3-.1-.5-.3-.8a.9.9 0 0 0-.6-.6c-.3-.2-.6-.3-1-.3-.5 0-.9.2-1.2.5s-.6.8-.7 1.2h3.7Zm2.2-2.5h1v1c.1-.3.4-.6.7-.8s.7-.3 1.1-.3c.2 0 .5 0 .7.1v1.1c-.3-.1-.6-.2-.9-.2s-.6 0-.8.2c-.3.2-.5.4-.6.7s-.2.6-.2.9v3.4h-1z" class="st10"/><path d="M207.3 126.8v-.5" class="st5"/><path d="M207.3 120.6V70.1" class="st6"/><path d="M207.3 67.2v-.5" class="st5"/><path d="M410.4 149.1h2.8c.5 0 .9.1 1.3.3q.6.3.9.9c.2.4.4.8.4 1.3s-.1.9-.4 1.3q-.3.6-.9.9c-.4.2-.8.3-1.3.3h-1.8v3.4h-1v-8.2Zm2.8 3.9c.3 0 .6 0 .8-.2.2-.1.4-.3.5-.6.1-.2.2-.5.2-.7s0-.5-.2-.7-.3-.4-.5-.6c-.2-.1-.5-.2-.8-.2h-1.8v3zm3.6-1.4h.9v.9c.1-.3.3-.6.7-.8.3-.2.7-.3 1-.3s.5 0 .7.1v1.1c-.2-.1-.5-.2-.8-.2s-.5 0-.8.2l-.6.6c-.1.3-.2.5-.2.9v3.2h-1v-5.7Zm5 5.5c-.4-.3-.8-.6-1-1.1s-.4-1-.4-1.5.1-1.1.4-1.5.6-.8 1-1.1.9-.4 1.5-.4 1.1.1 1.5.4.8.6 1 1.1.4 1 .4 1.5-.1 1.1-.4 1.5c-.2.5-.6.8-1 1.1s-1 .4-1.5.4-1.1-.1-1.5-.4m2.4-.8c.3-.2.5-.4.7-.8.2-.3.3-.7.3-1.1s0-.8-.3-1.1c-.2-.3-.4-.6-.7-.8s-.6-.3-1-.3-.7 0-1 .3c-.3.2-.5.4-.7.8-.2.3-.3.7-.3 1.1s0 .8.3 1.1c.2.3.4.6.7.8s.6.3 1 .3.7 0 1-.3m4.2.8c-.4-.3-.8-.6-1-1.1s-.4-1-.4-1.5.1-1.1.4-1.6.6-.8 1-1.1.9-.4 1.5-.4 1.1.1 1.6.4q.6.45.9 1.2l-.9.4c-.1-.4-.4-.6-.6-.8s-.6-.3-1-.3-.6 0-.9.3c-.3.2-.5.4-.7.8-.2.3-.3.7-.3 1.1s0 .8.3 1.1c.2.3.4.6.7.8s.6.3.9.3.8 0 1-.3c.3-.2.5-.5.7-.8l.9.4q-.3.75-.9 1.2c-.6.45-1 .5-1.6.5s-1.1-.1-1.5-.4Zm6 0c-.4-.3-.8-.6-1-1.1s-.4-1-.4-1.6.1-1.1.3-1.5.6-.8 1-1.1.9-.4 1.5-.4 1 .1 1.5.4c.4.2.7.6 1 1.1.2.5.3 1 .3 1.6v.2h-4.5c0 .4.1.8.3 1.1s.4.5.7.7.6.2.9.2c.7 0 1.3-.4 1.7-1.1l.9.4a2.7 2.7 0 0 1-2.6 1.5c-.6 0-1-.1-1.5-.4Zm3.2-3.3c0-.2 0-.5-.2-.7q-.15-.3-.6-.6c-.45-.3-.6-.2-1-.2s-.8.1-1.1.4-.5.6-.6 1.1h3.4Zm2.6 3.2c-.4-.3-.7-.7-.9-1.1l.9-.4c.1.4.4.6.6.8s.6.3.9.3.7 0 .9-.2.4-.4.4-.6 0-.4-.3-.6c-.2-.1-.5-.3-.9-.4l-.8-.2c-.4 0-.8-.3-1.1-.5-.3-.3-.5-.6-.5-1s.1-.7.3-.9.5-.4.8-.6a3 3 0 0 1 2.4.1c.4.2.7.5.9 1l-.9.4a.9.9 0 0 0-.6-.6c-.2-.1-.5-.2-.8-.2s-.6 0-.8.2-.4.3-.4.6 0 .4.2.5.4.2.8.3l.9.2c.6.1 1 .4 1.3.7s.4.6.4 1 0 .6-.3.9c-.2.3-.5.5-.8.6-.3.2-.7.2-1.2.2s-1.1-.2-1.5-.5Zm5.4 0c-.4-.3-.7-.7-.9-1.1l.9-.4c.1.4.4.6.6.8s.6.3.9.3.7 0 .9-.2.4-.4.4-.6 0-.4-.3-.6c-.2-.1-.5-.3-.9-.4l-.8-.2c-.4 0-.8-.3-1.1-.5-.3-.3-.5-.6-.5-1s.1-.7.3-.9.5-.4.8-.6a3 3 0 0 1 2.4.1c.4.2.7.5.9 1l-.9.4a.9.9 0 0 0-.6-.6c-.2-.1-.5-.2-.8-.2s-.6 0-.8.2-.4.3-.4.6 0 .4.2.5.4.2.8.3l.9.2c.6.1 1 .4 1.3.7s.4.6.4 1 0 .6-.3.9c-.2.3-.5.5-.8.6-.3.2-.7.2-1.2.2s-1.1-.2-1.5-.5Zm4.8-6.8c-.1-.1-.2-.3-.2-.5s0-.4.2-.5c.1-.1.3-.2.5-.2s.4 0 .5.2c.1.1.2.3.2.5s0 .4-.2.5c-.1.1-.3.2-.5.2s-.4 0-.5-.2m0 1.4h1v5.7h-1zm2.5 0h.9v.9c.2-.3.4-.5.8-.7.3-.2.7-.3 1.1-.3.7 0 1.2.2 1.6.6s.5 1 .5 1.7v3.6h-1v-3.5c0-.6-.1-.9-.4-1.2-.2-.2-.6-.4-1.1-.4s-.6 0-.8.3c-.2.2-.4.4-.6.7-.1.3-.2.6-.2.9v3.2h-1v-5.7Zm7.2 7.9q-.6-.45-.9-1.2l.9-.4c.1.3.3.6.6.8s.6.3 1.1.3c.6 0 1.1-.2 1.4-.5.3-.4.5-.8.5-1.5v-.6c-.2.3-.4.5-.8.7q-.45.3-1.2.3c-.75 0-.9-.1-1.3-.4s-.7-.6-1-1.1c-.2-.5-.4-1-.4-1.6s.1-1.1.4-1.6c.2-.5.6-.8 1-1.1s.9-.4 1.3-.4.8 0 1.2.3c.3.2.6.4.8.7v-.8h.9v5.5c0 .6-.1 1.2-.4 1.6-.2.4-.6.8-1 1s-.9.3-1.4.3-1.3-.2-1.7-.5Zm2.6-3.2c.3-.2.5-.4.7-.7s.3-.7.3-1.1 0-.8-.3-1.2c-.2-.3-.4-.6-.7-.7s-.6-.3-.9-.3-.6 0-.9.3c-.3.2-.5.4-.7.7s-.3.7-.3 1.1 0 .8.3 1.1c.2.3.4.6.7.7q.45.3.9.3c.45 0 .6 0 .9-.3Zm7 .8c-.4-.3-.7-.6-1-1.1-.2-.5-.4-1-.4-1.6s.1-1.1.4-1.6c.2-.5.6-.8 1-1.1s.9-.4 1.4-.4.8 0 1.2.3.6.4.8.7v-3.4h1v8.2h-.9v-.9c-.2.3-.4.5-.8.7s-.8.3-1.2.3-.9-.1-1.4-.4Zm2.5-.7c.3-.2.5-.4.7-.8.2-.3.3-.7.3-1.1s0-.8-.3-1.1-.4-.6-.7-.7q-.45-.3-.9-.3c-.45 0-.6 0-.9.3-.3.2-.5.4-.7.8-.2.3-.3.7-.3 1.1s0 .8.3 1.1c.2.3.4.6.7.8s.6.3.9.3.6 0 .9-.3Zm3.8.5c-.4-.4-.5-1-.5-1.7v-3.6h1v3.4c0 .6.1 1 .4 1.2s.6.4 1.1.4.6 0 .8-.3c.2-.2.4-.4.6-.7.1-.3.2-.6.2-.9v-3.2h1v5.7h-.9v-.9c-.2.3-.4.5-.8.7-.3.2-.7.3-1.1.3-.7 0-1.2-.2-1.6-.6Zm5.8-5.3h.9v.9c.1-.3.3-.6.7-.8.3-.2.7-.3 1-.3s.5 0 .7.1v1.1c-.2-.1-.5-.2-.8-.2s-.5 0-.8.2l-.6.6c-.1.3-.2.5-.2.9v3.2h-1v-5.7Zm4.7 5.6c-.3-.2-.6-.4-.8-.7s-.3-.6-.3-1c0-.6.2-1.1.7-1.4s1-.5 1.8-.5.7 0 1 .1c.3 0 .5.2.7.3v-.3c0-.3 0-.5-.2-.7-.1-.2-.3-.4-.6-.5-.2-.1-.5-.2-.8-.2-.7 0-1.1.3-1.5.8l-.8-.5c.2-.4.6-.6.9-.8s.8-.3 1.3-.3c.8 0 1.4.2 1.9.6s.7 1 .7 1.7v3.6h-.9v-.8c-.2.3-.4.5-.7.7s-.7.3-1.1.3-.8 0-1.1-.2Zm2.1-.8c.3-.2.5-.4.7-.7q.3-.45.3-.9c-.4-.3-.9-.4-1.5-.4s-.9.1-1.2.3-.4.5-.4.8.1.6.4.8.5.3.9.3.6 0 .9-.2Zm4.7 1c-.2 0-.4-.2-.5-.3-.2-.1-.3-.3-.3-.5s-.1-.4-.1-.7v-3.3h-1v-.9h1V150h1v1.7h1.4v.9h-1.4v3.1c0 .3 0 .6.2.7q.15.3.6.3c.45 0 .4 0 .6-.2v.9h-.8c-.1 0-.4 0-.6-.1Zm2.7-7.2c-.1-.1-.2-.3-.2-.5s0-.4.2-.5c.1-.1.3-.2.5-.2s.4 0 .5.2c.1.1.2.3.2.5s0 .4-.2.5c-.1.1-.3.2-.5.2s-.4 0-.5-.2m0 1.4h1v5.7h-1zm3.5 5.5c-.4-.3-.8-.6-1-1.1s-.4-1-.4-1.5.1-1.1.4-1.5.6-.8 1-1.1.9-.4 1.5-.4 1.1.1 1.5.4.8.6 1 1.1.4 1 .4 1.5-.1 1.1-.4 1.5c-.2.5-.6.8-1 1.1s-1 .4-1.5.4-1.1-.1-1.5-.4m2.5-.8c.3-.2.5-.4.7-.8.2-.3.3-.7.3-1.1s0-.8-.3-1.1c-.2-.3-.4-.6-.7-.8s-.6-.3-1-.3-.7 0-1 .3c-.3.2-.5.4-.7.8-.2.3-.3.7-.3 1.1s0 .8.3 1.1c.2.3.4.6.7.8s.6.3 1 .3.7 0 1-.3m2.9-4.7h.9v.9c.2-.3.4-.5.8-.7.3-.2.7-.3 1.1-.3.7 0 1.2.2 1.6.6s.5 1 .5 1.7v3.6h-1v-3.5c0-.6-.1-.9-.4-1.2-.2-.2-.6-.4-1.1-.4s-.6 0-.8.3c-.2.2-.4.4-.6.7-.1.3-.2.6-.2.9v3.2h-1v-5.7Z"/></svg>